name Run_400 01_newCOP3_v24.mot
datacolumns 19
datarows 25
range 2.86666700 2.89166700
endheader
                time	   R_ground_force_vx	   R_ground_force_vy	   R_ground_force_vz	   R_ground_force_px	   R_ground_force_py	   R_ground_force_pz	   L_ground_force_vx	   L_ground_force_vy	   L_ground_force_vz	   L_ground_force_px	   L_ground_force_py	   L_ground_force_pz	   R_ground_torque_x	   R_ground_torque_y	   R_ground_torque_z	   L_ground_torque_x	   L_ground_torque_y	   L_ground_torque_z	
          2.86666700	        170.41140700	        421.72729500	         18.69919800	          0.81504600	          0.00000000	         -0.32380600	          0.00000000	          0.00000000	          0.00000000	          0.00000000	          0.00000000	          0.00000000	          0.00000000	         -3.37113500	          0.00000000	          0.00000000	          0.00000000	          0.00000000	
          2.86770800	        165.28445400	        402.00589000	         18.19978900	          0.81277900	          0.00000000	         -0.32341500	          0.00000000	          0.00000000	          0.00000000	          0.00000000	          0.00000000	          0.00000000	          0.00000000	         -3.23857300	          0.00000000	          0.00000000	          0.00000000	          0.00000000	
          2.86875000	        160.15615800	        382.79309100	         17.69989400	          0.81056000	          0.00000000	         -0.32299400	          0.00000000	          0.00000000	          0.00000000	          0.00000000	          0.00000000	          0.00000000	          0.00000000	         -3.10239900	          0.00000000	          0.00000000	          0.00000000	          0.00000000	
          2.86979200	        155.03675800	        364.08960000	         17.19750400	          0.80838800	          0.00000000	         -0.32254200	          0.00000000	          0.00000000	          0.00000000	          0.00000000	          0.00000000	          0.00000000	          0.00000000	         -2.96300200	          0.00000000	          0.00000000	          0.00000000	          0.00000000	
          2.87083300	        149.93475300	        345.89498900	         16.69076900	          0.80626200	          0.00000000	         -0.32206000	          0.00000000	          0.00000000	          0.00000000	          0.00000000	          0.00000000	          0.00000000	          0.00000000	         -2.82077800	          0.00000000	          0.00000000	          0.00000000	          0.00000000	
          2.87187500	        144.85682700	        328.20797700	         16.17806200	          0.80418300	          0.00000000	         -0.32154800	          0.00000000	          0.00000000	          0.00000000	          0.00000000	          0.00000000	          0.00000000	          0.00000000	         -2.67613300	          0.00000000	          0.00000000	          0.00000000	          0.00000000	
          2.87291700	        139.80796800	        311.02670300	         15.65802400	          0.80214700	          0.00000000	         -0.32100700	          0.00000000	          0.00000000	          0.00000000	          0.00000000	          0.00000000	          0.00000000	          0.00000000	         -2.52947900	          0.00000000	          0.00000000	          0.00000000	          0.00000000	
          2.87395800	        134.79153400	        294.34912100	         15.12962000	          0.80015400	          0.00000000	         -0.32043800	          0.00000000	          0.00000000	          0.00000000	          0.00000000	          0.00000000	          0.00000000	          0.00000000	         -2.38123300	          0.00000000	          0.00000000	          0.00000000	          0.00000000	
          2.87500000	        129.80952500	        278.17321800	         14.59216200	          0.79820100	          0.00000000	         -0.31984000	          0.00000000	          0.00000000	          0.00000000	          0.00000000	          0.00000000	          0.00000000	          0.00000000	         -2.23181700	          0.00000000	          0.00000000	          0.00000000	          0.00000000	
          2.87604200	        124.86279300	        262.49716200	         14.04534300	          0.79628600	          0.00000000	         -0.31921600	          0.00000000	          0.00000000	          0.00000000	          0.00000000	          0.00000000	          0.00000000	          0.00000000	         -2.08165300	          0.00000000	          0.00000000	          0.00000000	          0.00000000	
          2.87708300	        119.95141600	        247.31947300	         13.48924400	          0.79440800	          0.00000000	         -0.31856500	          0.00000000	          0.00000000	          0.00000000	          0.00000000	          0.00000000	          0.00000000	          0.00000000	         -1.93116500	          0.00000000	          0.00000000	          0.00000000	          0.00000000	
          2.87812500	        115.07504300	        232.63920600	         12.92434400	          0.79256400	          0.00000000	         -0.31788800	          0.00000000	          0.00000000	          0.00000000	          0.00000000	          0.00000000	          0.00000000	          0.00000000	         -1.78077600	          0.00000000	          0.00000000	          0.00000000	          0.00000000	
          2.87916700	        110.23325300	        218.45590200	         12.35151300	          0.79075300	          0.00000000	         -0.31718700	          0.00000000	          0.00000000	          0.00000000	          0.00000000	          0.00000000	          0.00000000	          0.00000000	         -1.63090600	          0.00000000	          0.00000000	          0.00000000	          0.00000000	
          2.88020800	        105.42598000	        204.76968400	         11.77199700	          0.78897400	          0.00000000	         -0.31646200	          0.00000000	          0.00000000	          0.00000000	          0.00000000	          0.00000000	          0.00000000	          0.00000000	         -1.48197000	          0.00000000	          0.00000000	          0.00000000	          0.00000000	
          2.88125000	        100.65380900	        191.58119200	         11.18739900	          0.78722900	          0.00000000	         -0.31571300	          0.00000000	          0.00000000	          0.00000000	          0.00000000	          0.00000000	          0.00000000	          0.00000000	         -1.33438000	          0.00000000	          0.00000000	          0.00000000	          0.00000000	
          2.88229200	         95.91830400	        178.89154100	         10.59964100	          0.78551900	          0.00000000	         -0.31494100	          0.00000000	          0.00000000	          0.00000000	          0.00000000	          0.00000000	          0.00000000	          0.00000000	         -1.18853700	          0.00000000	          0.00000000	          0.00000000	          0.00000000	
          2.88333300	         91.22230500	        166.70217900	         10.01092900	          0.78384700	          0.00000000	         -0.31414500	          0.00000000	          0.00000000	          0.00000000	          0.00000000	          0.00000000	          0.00000000	          0.00000000	         -1.04483700	          0.00000000	          0.00000000	          0.00000000	          0.00000000	
          2.88437500	         86.57005300	        155.01484700	          9.42371200	          0.78221800	          0.00000000	         -0.31332300	          0.00000000	          0.00000000	          0.00000000	          0.00000000	          0.00000000	          0.00000000	          0.00000000	         -0.90366400	          0.00000000	          0.00000000	          0.00000000	          0.00000000	
          2.88541700	         81.96732300	        143.83126800	          8.84062300	          0.78063800	          0.00000000	         -0.31247400	          0.00000000	          0.00000000	          0.00000000	          0.00000000	          0.00000000	          0.00000000	          0.00000000	         -0.76539000	          0.00000000	          0.00000000	          0.00000000	          0.00000000	
          2.88645800	         77.42146300	        133.15310700	          8.26443100	          0.77911800	          0.00000000	         -0.31159100	          0.00000000	          0.00000000	          0.00000000	          0.00000000	          0.00000000	          0.00000000	          0.00000000	         -0.63037500	          0.00000000	          0.00000000	          0.00000000	          0.00000000	
          2.88750000	         72.94130700	        122.98165900	          7.69798400	          0.77766800	          0.00000000	         -0.31066900	          0.00000000	          0.00000000	          0.00000000	          0.00000000	          0.00000000	          0.00000000	          0.00000000	         -0.49896500	          0.00000000	          0.00000000	          0.00000000	          0.00000000	
          2.88854200	         68.53703300	        113.31766500	          7.14414500	          0.77630300	          0.00000000	         -0.30969600	          0.00000000	          0.00000000	          0.00000000	          0.00000000	          0.00000000	          0.00000000	          0.00000000	         -0.37149000	          0.00000000	          0.00000000	          0.00000000	          0.00000000	
          2.88958300	         64.21997100	        104.16107900	          6.60573900	          0.77504400	          0.00000000	         -0.30866000	          0.00000000	          0.00000000	          0.00000000	          0.00000000	          0.00000000	          0.00000000	          0.00000000	         -0.24826300	          0.00000000	          0.00000000	          0.00000000	          0.00000000	
          2.89062500	         60.00227400	         95.51085700	          6.08549200	          0.77391400	          0.00000000	         -0.30754200	          0.00000000	          0.00000000	          0.00000000	          0.00000000	          0.00000000	          0.00000000	          0.00000000	         -0.12958000	          0.00000000	          0.00000000	          0.00000000	          0.00000000	
          2.89166700	         55.89659900	         87.36473100	          5.58597600	          0.77294300	          0.00000000	         -0.30631600	          0.00000000	          0.00000000	          0.00000000	          0.00000000	          0.00000000	          0.00000000	          0.00000000	         -0.01571800	          0.00000000	          0.00000000	          0.00000000	          0.00000000	
